HIERARCHY
ROOT Hips
{
	OFFSET	0.00	0.00	0.00
	CHANNELS 6 Xposition Yposition Zposition Zrotation Xrotation Yrotation
	JOINT LeftUpLeg
	{
		OFFSET	 0.126116	-0.014019	-0.065224
		CHANNELS 3 Zrotation Xrotation Yrotation
		JOINT LeftLeg
		{
			OFFSET	 0.000000	 0.000000	 0.569914
			CHANNELS 3 Zrotation Xrotation Yrotation
			JOINT LeftFoot
			{
				OFFSET	 0.000000	 0.000000	 0.544423
				CHANNELS 3 Zrotation Xrotation Yrotation
				JOINT LeftToeBase
				{
					OFFSET	 0.000000	 0.000000	 0.207117
					CHANNELS 3 Zrotation Xrotation Yrotation
					End Site
					{
						OFFSET	 0.000000	 0.000000	 0.207117
					}
				}
			}
		}
	}
	JOINT RightUpLeg
	{
		OFFSET	-0.124023	-0.008373	-0.065224
		CHANNELS 3 Zrotation Xrotation Yrotation
		JOINT RightLeg
		{
			OFFSET	 0.000000	 0.000000	 0.570047
			CHANNELS 3 Zrotation Xrotation Yrotation
			JOINT RightFoot
			{
				OFFSET	 0.000000	 0.000000	 0.544354
				CHANNELS 3 Zrotation Xrotation Yrotation
				JOINT RightToeBase
				{
					OFFSET	 0.000000	 0.000000	 0.207540
					CHANNELS 3 Zrotation Xrotation Yrotation
					End Site
					{
						OFFSET	 0.000000	 0.000000	 0.207540
					}
				}
			}
		}
	}
	JOINT Spine
	{
		OFFSET	 0.000184	-0.007763	 0.117403
		CHANNELS 3 Zrotation Xrotation Yrotation
		JOINT Spine1
		{
			OFFSET	 0.000000	 0.000000	 0.137269
			CHANNELS 3 Zrotation Xrotation Yrotation
			JOINT Spine2
			{
				OFFSET	 0.000000	 0.000000	 0.156879
				CHANNELS 3 Zrotation Xrotation Yrotation
				JOINT LeftShoulder
				{
					OFFSET	 0.080501	-0.002496	 0.160144
					CHANNELS 3 Zrotation Xrotation Yrotation
					JOINT LeftArm
					{
						OFFSET	 0.000000	 0.000000	 0.164363
						CHANNELS 3 Zrotation Xrotation Yrotation
						JOINT LeftForeArm
						{
							OFFSET	 0.000000	 0.000000	 0.364576
							CHANNELS 3 Zrotation Xrotation Yrotation
							JOINT LeftHand
							{
								OFFSET	 0.000000	 0.000000	 0.360812
								CHANNELS 3 Zrotation Xrotation Yrotation
								JOINT LeftHandIndex1
								{
									OFFSET	 0.000000	 0.000000	 0.086006
									CHANNELS 3 Zrotation Xrotation Yrotation
									JOINT LeftHandIndex2
									{
										OFFSET	 0.000000	 0.000000	 0.047236
										CHANNELS 3 Zrotation Xrotation Yrotation
										JOINT LeftHandIndex3
										{
											OFFSET	-0.004284	-0.000551	 0.038166
											CHANNELS 3 Zrotation Xrotation Yrotation
											End Site
											{
												OFFSET	-0.004284	-0.000551	 0.038166
											}
										}
									}
								}
							}
						}
					}
				}
				JOINT Neck
				{
					OFFSET	 0.000000	 0.000000	 0.176489
					CHANNELS 3 Zrotation Xrotation Yrotation
					JOINT Head
					{
						OFFSET	 0.000000	-0.001747	 0.077940
						CHANNELS 3 Zrotation Xrotation Yrotation
						End Site
						{
							OFFSET	 0.000000	-0.001747	 0.077940
						}
					}
				}
				JOINT RightShoulder
				{
					OFFSET	-0.080363	 0.000306	 0.159706
					CHANNELS 3 Zrotation Xrotation Yrotation
					JOINT RightArm
					{
						OFFSET	 0.000000	 0.000000	 0.164196
						CHANNELS 3 Zrotation Xrotation Yrotation
						JOINT RightForeArm
						{
							OFFSET	 0.000000	 0.000000	 0.365611
							CHANNELS 3 Zrotation Xrotation Yrotation
							JOINT RightHand
							{
								OFFSET	 0.000000	 0.000000	 0.360648
								CHANNELS 3 Zrotation Xrotation Yrotation
								JOINT RightHandIndex1
								{
									OFFSET	 0.000000	 0.000000	 0.069977
									CHANNELS 3 Zrotation Xrotation Yrotation
									JOINT RightHandIndex2
									{
										OFFSET	 0.000000	 0.000000	 0.052305
										CHANNELS 3 Zrotation Xrotation Yrotation
										JOINT RightHandIndex3
										{
											OFFSET	 0.009002	-0.000782	 0.042196
											CHANNELS 3 Zrotation Xrotation Yrotation
											End Site
											{
												OFFSET	 0.009002	-0.000782	 0.042196
											}
										}
									}
								}
							}
						}
					}
				}
			}
		}
	}
}
MOTION
Frames:    10
Frame Time: 0.03333334
-0.829094	 1.193567	-0.132071	 76.924350	 3.904928	-0.984576	 9.959733	 16.965170	-176.343300	-6.137269	-11.623630	 1.542209	-21.474130	 89.269120	 24.963110	-2.299535	 39.870770	-0.272165	 3.918796	-45.829730	 179.344500	-0.703101	-45.464110	 3.333198	-177.348300	 83.349080	-178.645200	 2.406159	 20.366390	-0.165824	-2.022037	 1.912952	 2.706410	-2.742484	-5.866690	 0.986945	-2.921876	-9.987300	-1.068971	-91.776180	 78.527400	 180.000000	 46.670960	 64.297620	-61.995340	-7.136566	-5.302612	-29.370830	 4.354110	-17.301500	-5.618207	-3.812334	 37.924440	-2.927599	-2.450526	 36.184240	 0.754587	-1.378229	 35.397820	-2.634230	-0.120886	 5.140606	-2.341719	-0.540019	-24.273600	-2.718182	 89.782100	 78.203850	-180.000000	-37.336410	 76.033140	 40.973770	 3.960909	-7.482680	 21.209300	-13.186750	-18.323370	 10.042930	 6.437017	 35.671460	-0.771858	 2.830251	 35.756010	-7.813440	-2.350882	 35.473990	 5.254307
-0.819926	 1.194475	-0.135405	 73.275440	 3.999049	-0.814945	 9.823232	 17.255840	-176.304600	-6.046710	-11.624070	 1.538984	-18.303010	 89.215900	 21.774160	-2.295169	 40.253440	-0.282444	 4.155414	-45.857940	 179.619200	-0.776512	-43.328270	 3.206169	-177.192200	 83.590230	-178.637600	 2.403519	 22.227360	-0.128518	-2.067730	 2.056297	 2.726625	-2.777580	-5.580750	 0.974085	-2.942905	-9.636692	-1.078017	-91.776180	 78.527400	 180.000000	 41.571980	 62.068650	-56.794940	-6.703693	-4.581669	-27.725820	 3.304861	-17.308140	-5.618402	-3.812334	 37.924440	-2.927599	-2.450526	 36.184240	 0.754587	-1.378229	 35.397820	-2.634230	-0.165320	 4.780841	-2.353617	-0.540390	-23.227110	-2.681818	 89.782090	 78.203830	-180.000000	-31.182500	 72.937650	 35.187070	 3.926934	-6.563758	 20.161590	-11.613910	-18.330330	 10.042030	 6.437017	 35.671460	-0.771858	 2.830251	 35.756010	-7.813440	-2.350882	 35.473990	 5.254307
-0.802982	 1.189975	-0.139059	 73.727360	 4.074116	-1.002860	 9.533780	 17.958570	-176.281800	-5.822205	-11.624710	 1.534516	-12.185200	 89.070010	 15.630830	-2.281247	 41.411220	-0.314135	 4.410127	-45.770910	-179.904900	-0.337731	-42.529970	 3.533024	-176.518200	 84.245280	-178.866800	 2.393898	 26.005210	-0.050780	-2.188880	 1.978888	 2.724957	-2.884786	-5.642582	 0.908464	-3.005900	-9.638192	-1.119779	-91.776180	 78.527400	 180.000000	 42.258960	 62.191010	-57.549130	-6.483528	-4.580658	-26.950560	 3.510107	-17.331540	-5.619519	-3.812334	 37.924440	-2.927599	-2.450526	 36.184240	 0.754587	-1.378229	 35.397820	-2.634230	-0.242371	 4.976386	-2.314527	-0.603128	-23.525250	-2.711180	 89.782090	 78.203890	-180.000000	-30.516620	 73.121560	 34.134330	 3.902148	-6.496416	 19.808900	-11.712110	-18.348920	 10.043350	 6.437017	 35.671460	-0.771858	 2.830251	 35.756010	-7.813440	-2.350882	 35.473990	 5.254307
-0.783445	 1.184381	-0.139303	 74.166490	 4.157533	-1.162637	 9.256215	 18.767370	-176.354700	-5.546211	-11.624580	 1.535493	-6.515574	 88.823300	 9.965465	-2.265779	 42.601050	-0.347693	 4.679482	-45.585520	-179.448400	-0.006940	-42.119880	 3.827108	-175.980200	 85.028230	-179.053500	 2.382430	 28.880290	 0.010665	-2.341163	 1.880514	 2.680290	-2.998085	-5.688586	 0.831562	-3.066714	-9.623178	-1.164071	-91.776180	 78.527400	-180.000000	 42.991570	 62.453880	-58.284270	-6.327105	-4.566394	-26.034530	 3.742366	-17.367830	-5.621935	-3.812334	 37.924440	-2.927599	-2.450526	 36.184240	 0.754587	-1.378229	 35.397820	-2.634230	-0.327952	 5.126645	-2.301305	-0.667699	-23.714280	-2.707251	 89.782120	 78.203870	 180.000000	-30.049810	 73.330310	 33.355050	 3.873842	-6.431749	 19.458810	-11.827140	-18.380460	 10.045400	 6.437017	 35.671460	-0.771858	 2.830251	 35.756010	-7.813440	-2.350882	 35.473990	 5.254307
-0.762249	 1.177974	-0.139243	 74.554120	 4.254484	-1.280287	 9.008148	 19.635370	-176.519300	-5.229806	-11.623670	 1.542554	-1.819765	 88.403820	 5.310759	-2.246695	 43.949670	-0.387092	 4.931411	-45.302990	-179.071900	 0.293230	-42.125350	 4.141504	-175.497100	 85.835330	-179.235500	 2.376052	 30.163480	 0.038869	-2.509334	 1.766304	 2.585792	-3.098747	-5.745636	 0.736296	-3.102617	-9.587461	-1.204825	-91.776180	 78.527400	 180.000000	 43.700190	 62.861040	-58.901430	-6.257852	-4.538175	-25.046030	 3.986506	-17.417050	-5.625831	-3.812334	 37.924440	-2.927599	-2.450526	 36.184240	 0.754587	-1.378229	 35.397820	-2.634230	-0.415115	 5.202453	-2.286187	-0.729927	-23.778020	-2.676111	 89.782120	 78.203870	 180.000000	-29.422660	 73.598150	 32.448220	 3.931502	-6.371912	 19.137020	-11.944950	-18.423540	 10.048860	 6.437017	 35.671460	-0.771858	 2.830251	 35.756010	-7.813440	-2.350882	 35.473990	 5.254307
-0.739662	 1.170904	-0.141078	 74.925440	 4.370851	-1.380386	 8.791096	 20.542520	-176.762700	-4.876493	-11.621940	 1.555801	 1.428543	 87.732980	 2.146270	-2.221474	 45.567010	-0.436399	 5.176197	-44.889760	-178.720300	 0.665704	-42.495650	 4.550801	-175.565600	 86.705320	-178.854400	 2.377437	 29.898440	 0.032999	-2.705661	 1.614250	 2.460091	-3.199262	-5.823109	 0.626889	-3.131892	-9.554620	-1.247591	-91.776180	 78.527380	-180.000000	 44.363800	 63.402800	-59.388520	-6.283393	-4.497240	-24.026600	 4.235727	-17.479880	-5.630705	-3.812334	 37.924440	-2.927599	-2.450526	 36.184240	 0.754587	-1.378229	 35.397820	-2.634230	-0.503556	 5.158973	-2.253168	-0.784067	-23.711120	-2.604637	 89.782090	 78.203830	-180.000000	-28.752870	 73.882290	 31.503230	 4.019775	-6.315492	 18.851310	-12.054530	-18.477340	 10.054320	 6.437017	 35.671460	-0.771858	 2.830251	 35.756010	-7.813440	-2.350882	 35.473990	 5.254307
-0.717199	 1.163702	-0.142035	 75.246670	 4.481286	-1.457713	 8.614223	 21.424340	-177.057200	-4.509492	-11.619500	 1.574013	 3.283936	 86.796370	 0.415094	-2.191094	 47.312030	-0.492462	 5.326759	-44.396720	-178.470600	 1.325194	-43.115390	 5.155320	-174.939500	 87.741120	-179.023700	 2.381320	 29.115500	 0.015799	-2.916771	 1.459761	 2.294430	-3.285992	-5.917601	 0.526728	-3.127200	-9.540035	-1.291898	-91.776180	 78.527400	 180.000000	 44.864440	 64.054960	-59.571070	-6.398804	-4.448566	-23.064770	 4.471809	-17.551760	-5.636320	-3.812334	 37.924440	-2.927599	-2.450526	 36.184240	 0.754587	-1.378229	 35.397820	-2.634230	-0.586193	 5.054177	-2.209573	-0.828332	-23.561990	-2.506310	 89.782090	 78.203830	-180.000000	-28.062130	 74.155650	 30.544320	 4.130441	-6.263376	 18.617320	-12.141440	-18.537620	 10.061900	 6.437017	 35.671460	-0.771858	 2.830251	 35.756010	-7.813440	-2.350882	 35.473990	 5.254307
-0.689430	 1.154480	-0.142141	 75.565320	 4.511784	-1.488040	 8.470152	 22.478830	-177.528300	-4.034535	-11.615430	 1.604155	 4.462348	 85.215130	-0.544721	-2.147863	 49.496350	-0.567412	 5.148434	-43.757780	-178.547300	 2.954159	-44.086320	 6.350157	-174.518600	 89.423930	-178.539700	 2.378712	 29.647280	 0.027465	-3.187912	 1.283668	 1.983908	-3.360112	-6.055563	 0.412825	-3.072901	-9.561818	-1.338548	-91.776180	 78.527400	-180.000000	 45.233430	 64.999110	-59.362640	-6.654856	-4.382158	-21.966070	 4.746735	-17.651280	-5.644675	-3.812334	 37.924440	-2.927599	-2.450526	 36.184240	 0.754587	-1.378229	 35.397820	-2.634230	-0.684744	 4.912414	-2.143313	-0.881313	-23.323020	-2.370366	 89.782120	 78.203930	 180.000000	-27.144030	 74.471700	 29.280860	 4.294591	-6.200575	 18.388490	-12.211630	-18.619980	 10.074630	 6.437017	 35.671460	-0.771858	 2.830251	 35.756010	-7.813440	-2.350882	 35.473990	 5.254307
-0.669579	 1.147853	-0.141628	 75.725170	 4.473629	-1.444957	 8.452888	 23.208450	-177.933100	-3.700631	-11.611170	 1.635064	 4.877444	 83.761180	-0.733847	-2.115479	 50.949440	-0.620652	 4.801042	-43.279840	-178.781800	 4.445597	-44.818940	 7.356728	 6.868217	 89.182670	 0.801905	 2.373704	 30.599260	 0.048572	-3.359733	 1.161794	 1.680440	-3.371683	-6.152673	 0.326719	-3.028991	-9.600667	-1.345989	-91.776170	 78.527420	-180.000000	 45.331110	 65.745370	-58.965640	-6.910826	-4.332973	-21.254780	 4.929811	-17.728340	-5.651649	-3.812334	 37.924440	-2.927599	-2.450526	 36.184240	 0.754587	-1.378229	 35.397820	-2.634230	-0.757185	 4.840455	-2.088168	-0.920124	-23.165900	-2.255826	 89.782120	 78.203870	 180.000000	-26.430190	 74.676810	 28.300330	 4.428156	-6.154997	 18.262480	-12.232500	-18.683450	 10.086290	 6.437017	 35.671460	-0.771858	 2.830251	 35.756010	-7.813440	-2.350882	 35.473990	 5.254307
-0.644894	 1.139558	-0.140386	 75.850950	 4.426807	-1.363960	 8.508715	 24.092580	-178.441500	-3.359113	-11.605730	 1.673544	 5.068126	 81.549030	-0.608461	-2.080755	 52.366320	-0.675536	 4.308404	-42.630680	-179.136500	 5.920576	-45.668280	 8.321557	 6.910517	 87.754590	 1.367105	 2.370315	 31.197030	 0.061986	-3.519756	 0.979494	 1.295177	-3.331196	-6.259250	 0.209581	-2.996125	-9.645555	-1.314007	-91.776180	 78.527400	-180.000000	 45.249040	 66.735870	-58.208500	-7.349027	-4.259139	-20.472560	 5.099311	-17.830020	-5.661883	-3.812334	 37.924440	-2.927599	-2.450526	 36.184240	 0.754587	-1.378229	 35.397820	-2.634230	-0.847545	 4.800991	-2.012279	-0.957430	-23.030060	-2.086828	 89.782140	 78.203830	 180.000000	-25.547110	 74.902590	 27.087650	 4.601840	-6.098768	 18.145670	-12.230030	-18.767670	 10.103230	 6.437017	 35.671460	-0.771858	 2.830251	 35.756010	-7.813440	-2.350882	 35.473990	 5.254307
